# Blender 3.4.1
# www.blender.org
o Cone
v 0.000000 47.847595 -35.124859 0.9843 0.6589 0.9882
v 0.000000 65.847595 -0.513332 1.0000 0.7059 0.9843
v 30.419018 47.847595 -17.562429 1.0000 0.7059 0.9843
v 0.444558 65.847595 -0.256666 1.0000 0.7059 0.9843
v 30.419018 47.847595 17.562429 1.0000 0.7059 0.9804
v 0.444558 65.847595 0.256666 1.0000 0.7059 0.9843
v 0.000000 47.847595 35.124859 0.9921 0.6745 0.9882
v 0.000000 65.847595 0.513332 1.0000 0.7059 0.9843
v -30.419018 47.847595 17.562429 1.0000 0.7059 0.9843
v -0.444558 65.847595 0.256666 1.0000 0.7059 0.9843
v -30.419018 47.847595 -17.562429 1.0000 0.7059 0.9804
v -0.444558 65.847595 -0.256666 1.0000 0.7059 0.9843
v 0.000000 -0.338909 -1.000000 1.0000 1.0000 1.0000
v 0.000000 65.368927 -1.000000 1.0000 0.7059 0.9843
v 0.866025 -0.338909 0.500000 1.0000 1.0000 1.0000
v 0.866025 65.368927 0.500000 1.0000 0.7059 0.9843
v -0.866025 -0.338909 0.500000 1.0000 1.0000 1.0000
v -0.866025 65.368927 0.500000 1.0000 0.7059 0.9843
vn 0.2574 0.8573 -0.4458
vn 0.5148 0.8573 -0.0000
vn 0.2574 0.8573 0.4458
vn -0.2574 0.8573 0.4458
vn -0.0000 1.0000 -0.0000
vn -0.5148 0.8573 -0.0000
vn -0.2574 0.8573 -0.4458
vn 0.8660 -0.0000 -0.5000
vn -0.0000 -0.0000 1.0000
vn -0.8660 -0.0000 -0.5000
vn -0.0000 -1.0000 -0.0000
s 0
f 1//1 2//1 4//1 3//1
f 3//2 4//2 6//2 5//2
f 5//3 6//3 8//3 7//3
f 7//4 8//4 10//4 9//4
f 4//5 2//5 12//5 10//5 8//5 6//5
f 9//6 10//6 12//6 11//6
f 11//7 12//7 2//7 1//7
f 13//8 14//8 16//8 15//8
f 15//9 16//9 18//9 17//9
f 16//5 14//5 18//5
f 17//10 18//10 14//10 13//10
f 13//11 15//11 17//11
