# Blender 3.4.1
# www.blender.org
o Cylinder
v 0.000000 0.000656 -1.000000 0.5098 0.3961 0.2863
v 0.000000 12.191582 -2.006691 0.5294 0.4432 0.3529
v 0.866025 0.000656 0.500000 0.5608 0.4667 0.3843
v 0.866025 12.191582 -0.506691 0.5098 0.3961 0.2863
v -0.866025 0.000656 0.500000 0.5098 0.3961 0.2863
v -0.866025 12.191582 -0.506691 0.5961 0.5019 0.4118
v 0.866025 3.570686 -0.089088 0.5098 0.3961 0.2863
v 0.000000 3.565680 -1.589087 0.5098 0.3961 0.2863
v -0.866025 3.494618 -0.089088 0.5098 0.3961 0.2863
v 0.000000 7.348227 -1.733893 0.5098 0.3961 0.2863
v -0.866025 7.379036 -0.233893 0.5098 0.3961 0.2863
v 0.866025 7.378349 -0.233893 0.5098 0.3961 0.2863
v -0.866025 8.404644 -0.202640 0.5098 0.3961 0.2863
v 0.000000 8.386851 -1.702640 0.5098 0.3961 0.2863
v 0.866025 8.445147 -0.202640 0.5098 0.3961 0.2863
v -2.321535 10.991248 3.454329 0.5098 0.3961 0.2863
v -2.321535 9.965640 3.454329 0.5255 0.4196 0.3176
v -0.589484 11.031751 3.454329 0.4980 0.5451 0.3412
v -0.589484 9.964952 3.454329 0.5647 0.4902 0.3961
v -0.580721 13.514217 4.638169 0.2941 0.4471 0.2353
v 2.219440 8.692432 5.614506 0.2745 0.4235 0.2196
v 2.171809 10.524326 2.512760 0.2784 0.4314 0.2235
v -0.669115 12.571058 1.637403 0.2314 0.3765 0.1765
v -4.636261 8.877167 5.296796 0.2980 0.4510 0.2392
v -3.729289 10.531995 0.671271 0.2000 0.3451 0.1686
v -0.588886 8.911459 7.873515 0.1922 0.3490 0.1608
v -0.503084 11.700394 7.717090 0.2941 0.4471 0.2353
v 0.215166 10.722498 -0.067114 0.2980 0.4510 0.2392
v 0.002933 13.728470 3.937061 0.2980 0.4510 0.2392
v 3.420281 9.217273 -3.847156 0.2980 0.4510 0.2392
v 7.050034 11.203955 -0.355978 0.2353 0.3882 0.1922
v 4.299655 11.674988 3.740976 0.2980 0.4510 0.2392
v 6.088118 15.264881 -5.408927 0.2902 0.4471 0.2314
v 5.063799 17.805105 -0.534632 0.2941 0.4510 0.2353
v 4.601472 17.676584 2.773088 0.2980 0.4510 0.2392
v 2.416977 15.970134 4.659963 0.2980 0.4510 0.2392
v 3.218533 13.270288 -7.229228 0.2902 0.4392 0.2314
v -3.103103 16.273180 -6.880958 0.2863 0.4432 0.2314
v -6.898571 16.719221 -0.563866 0.2980 0.4510 0.2392
v -0.013509 18.984329 4.435633 0.2980 0.4510 0.2392
v -1.821643 11.180437 -5.144754 0.2980 0.4510 0.2392
vn 0.8631 -0.0823 -0.4982
vn -0.0036 0.1645 0.9864
vn -0.8622 -0.0834 -0.4997
vn 0.8660 -0.0191 -0.4997
vn -0.8658 -0.0189 -0.5001
vn -0.0008 0.0376 0.9993
vn -0.8658 0.0151 -0.5001
vn 0.9283 -0.0054 0.3717
vn 0.8657 0.0149 -0.5003
vn -0.8654 -0.0400 -0.4994
vn -0.0009 0.0805 0.9968
vn 0.8657 -0.0402 -0.4990
vn -0.9283 0.0057 -0.3719
vn -0.0190 0.8127 -0.5824
vn -0.0003 -0.8188 0.5741
vn 0.6156 0.7464 -0.2527
vn 0.7999 0.5238 0.2928
vn 0.6277 0.0243 0.7780
vn 0.2979 0.0052 -0.9546
vn 0.0549 -0.9124 -0.4056
vn -0.0297 -0.9978 0.0599
vn -0.4810 0.8403 -0.2500
vn -0.7187 0.6597 0.2197
vn -0.5363 0.0637 0.8416
vn -0.0507 -0.6414 -0.7656
vn -0.0694 -0.2377 0.9689
vn -0.1391 -0.9549 0.2623
vn -0.1155 -0.9274 0.3558
vn 0.6062 0.0968 0.7894
vn 0.9635 -0.0868 -0.2531
vn 0.9087 0.1567 0.3870
vn 0.6799 -0.4496 -0.5793
vn 0.4079 0.3904 0.8253
vn 0.0143 0.9676 -0.2520
vn -0.0108 0.9704 -0.2412
vn 0.1901 0.4984 -0.8458
vn -0.2229 -0.3643 -0.9042
vn -0.2053 -0.0931 0.9743
vn -0.7796 -0.6145 -0.1210
vn -0.6156 -0.3902 0.6847
s 0
f 1//1 8//1 7//1 3//1
f 3//2 7//2 9//2 5//2
f 5//3 9//3 8//3 1//3
f 7//4 8//4 10//4 12//4
f 8//5 9//5 11//5 10//5
f 9//6 7//6 12//6 11//6
f 10//7 11//7 13//7 14//7
f 12//8 15//8 18//8 19//8
f 12//9 10//9 14//9 15//9
f 14//10 13//10 6//10 2//10
f 13//11 15//11 4//11 6//11
f 15//12 14//12 2//12 4//12
f 13//13 11//13 17//13 16//13
f 15//14 13//14 16//14 18//14
f 11//15 12//15 19//15 17//15
f 23//16 20//16 22//16
f 20//17 27//17 21//17 22//17
f 27//18 26//18 21//18
f 23//19 22//19 25//19
f 22//20 21//20 24//20 25//20
f 21//21 26//21 24//21
f 23//22 25//22 20//22
f 25//23 24//23 27//23 20//23
f 24//24 26//24 27//24
f 41//25 37//25 30//25
f 36//26 29//26 32//26
f 28//27 41//27 30//27 31//27
f 29//28 28//28 31//28 32//28
f 36//29 32//29 35//29
f 31//30 30//30 33//30 34//30
f 32//31 31//31 34//31 35//31
f 30//32 37//32 33//32
f 36//33 35//33 40//33
f 34//34 33//34 38//34 39//34
f 35//35 34//35 39//35 40//35
f 33//36 37//36 38//36
f 38//37 37//37 41//37
f 36//38 40//38 29//38
f 39//39 38//39 41//39 28//39
f 40//40 39//40 28//40 29//40
