# Blender 3.4.1
# www.blender.org
o Sphere
v 0.437869 0.155895 -3.675812
v 0.397236 -2.963269 -2.569080
v 1.907897 3.165162 -0.633698
v 3.252707 0.395025 -0.322060
v 2.160066 -2.832954 -0.553367
v 0.260491 4.429960 2.674043
v 0.294421 1.058227 4.040784
v -0.192149 -2.305162 2.737150
v -0.047104 -4.496346 0.232915
v -0.074655 4.977112 -0.404824
v -2.348844 2.750839 0.195601
v -3.396037 0.130591 0.293559
v -2.573675 -2.183848 0.006212
v -0.073878 2.825661 -2.606459
vn 0.6850 0.3246 -0.6522
vn 0.7498 -0.2199 -0.6241
vn 0.4972 0.6206 -0.6063
vn 0.4747 -0.8016 -0.3633
vn 0.7562 -0.3148 0.5737
vn 0.6771 0.7337 0.0567
vn 0.6215 -0.5714 0.5359
vn 0.8478 0.3082 0.4316
vn -0.6952 -0.2318 0.6804
vn -0.6578 0.7260 0.2006
vn -0.6078 -0.6147 0.5027
vn -0.7310 0.2762 0.6240
vn -0.7298 0.1942 -0.6555
vn -0.6903 -0.2040 -0.6942
vn -0.6625 0.5356 -0.5236
vn -0.5764 -0.6749 -0.4607
s 0
f 1//1 14//1 3//1 4//1
f 2//2 1//2 4//2 5//2
f 14//3 10//3 3//3
f 9//4 2//4 5//4
f 5//5 4//5 7//5 8//5
f 3//6 10//6 6//6
f 9//7 5//7 8//7
f 4//8 3//8 6//8 7//8
f 8//9 7//9 12//9 13//9
f 6//10 10//10 11//10
f 9//11 8//11 13//11
f 7//12 6//12 11//12 12//12
f 12//13 11//13 14//13 1//13
f 13//14 12//14 1//14 2//14
f 11//15 10//15 14//15
f 9//16 13//16 2//16
