# Blender 3.4.1
# www.blender.org
o Crater_base.003
v 1.175669 1.146942 0.794908 0.4863 0.5647 0.8274
v 1.262751 0.519281 1.290449 0.3686 0.4275 0.6276
v 1.671525 0.438178 0.276814 0.3686 0.4275 0.6276
v 1.532971 0.133034 1.008109 0.3882 0.4510 0.6589
v 1.425107 -0.530241 0.142337 0.4235 0.4902 0.7176
v 1.398684 -0.394714 0.934825 0.4550 0.5255 0.7686
v 0.621975 -1.029076 0.492742 0.3686 0.4275 0.6276
v 0.961011 -0.666558 1.125781 0.3686 0.4275 0.6276
v -0.133098 -0.682693 1.064167 0.3686 0.4275 0.6276
v 0.549528 -0.477794 1.437183 0.3686 0.4275 0.6276
v -0.647987 0.426307 1.037473 0.3608 0.4157 0.6079
v 0.474091 0.029435 1.634540 0.3686 0.4275 0.6276
v 0.249590 1.091671 1.207648 0.3686 0.4275 0.6276
v 0.791505 0.473175 1.569237 0.3686 0.4275 0.6276
v 1.739843 0.205400 0.901195 0.4550 0.5255 0.7725
v 1.365559 0.740393 1.292265 0.3686 0.4275 0.6276
v 1.553841 -0.525587 0.799688 0.5019 0.5804 0.8549
v 0.947616 -0.902120 1.064183 0.3686 0.4275 0.6276
v 0.377669 -0.640662 1.495508 0.3686 0.4275 0.6276
v 0.273180 0.061904 1.768868 0.3686 0.4275 0.6276
v 0.712833 0.676531 1.678416 0.3686 0.4275 0.6276
v 1.419167 0.349149 0.409169 0.3843 0.4432 0.6315
v 1.050714 0.875808 0.794148 0.3725 0.4314 0.6315
v 1.236063 -0.370452 0.309244 0.3686 0.4275 0.6276
v 0.639281 -0.741119 0.569618 0.3765 0.4353 0.6315
v 0.078212 -0.483734 0.994225 0.4392 0.4863 0.6589
v -0.089082 0.238700 1.159508 0.4000 0.4510 0.6432
v 0.408155 0.812942 1.174284 0.3686 0.4275 0.6276
v 0.780083 2.012705 -0.577732 0.3686 0.4275 0.6276
v 1.250220 1.208326 -1.005183 0.3255 0.3725 0.5490
v 1.559736 0.358404 -1.236692 0.3686 0.4275 0.6276
v 1.527320 -0.510796 -1.195094 0.3686 0.4275 0.6276
v 1.080540 -1.218258 -0.881494 0.3686 0.4275 0.6276
v 0.649760 -1.915026 -0.513634 0.3686 0.4275 0.6276
v 1.094693 2.308254 0.076162 0.3686 0.4275 0.6276
v 1.839573 1.320132 -0.038522 0.3686 0.4275 0.6276
v 2.027362 0.294110 -0.055269 0.4275 0.4941 0.7294
v 1.615693 -0.497564 -0.087511 0.5137 0.5921 0.8706
v 1.038021 -1.037682 -0.104568 0.3686 0.4275 0.6276
v 0.831159 -1.976978 0.028247 0.3686 0.4275 0.6276
v 0.815915 2.146848 0.745130 0.3686 0.4275 0.6276
v 1.127641 1.173882 0.992554 0.5137 0.5921 0.8706
v 1.163672 0.192755 0.890507 0.3255 0.3725 0.5530
v 1.054763 -0.563522 0.787878 0.3686 0.4275 0.6276
v 0.610124 -1.140084 0.466853 0.3686 0.4275 0.6276
v 0.539486 -2.119885 0.611835 0.3686 0.4275 0.6276
v 0.126375 1.670037 1.076077 0.3686 0.4275 0.6276
v -0.040506 1.111247 1.358912 0.3686 0.4235 0.6236
v -0.138317 0.172326 1.229941 0.3216 0.3686 0.5451
v -0.187890 -0.638255 1.425318 0.3686 0.4275 0.6276
v -0.241339 -1.424632 1.281378 0.3686 0.4275 0.6276
v -0.242330 -2.222215 0.975111 0.5137 0.5921 0.8706
v 0.164880 2.509832 0.595234 0.3686 0.4275 0.6276
v -0.577730 1.795672 0.989556 0.3490 0.4039 0.5961
v -0.979503 1.147755 1.026811 0.3216 0.3686 0.5451
v -1.137411 0.184559 0.901025 0.3686 0.4275 0.6236
v -1.375696 -0.609903 1.178973 0.3686 0.4275 0.6276
v -1.290357 -1.393443 1.056554 0.3686 0.4275 0.6276
v -0.834205 -2.033867 0.618129 0.5098 0.5882 0.8627
v -0.069164 -2.293733 0.009405 0.3765 0.4353 0.6315
v -0.899433 2.162957 0.310427 0.5137 0.5921 0.8706
v -1.411041 1.249783 0.178874 0.3686 0.4275 0.6276
v -1.609088 0.299514 0.068729 0.3216 0.3686 0.5451
v -1.788386 -0.528633 0.084340 0.5059 0.5843 0.8588
v -1.602012 -1.344487 0.101256 0.5137 0.5921 0.8706
v -1.007123 -1.926234 0.055100 0.3686 0.4275 0.6276
v -0.475033 2.193441 -0.454439 0.3686 0.4275 0.6276
v -0.932417 1.256056 -0.853722 0.5137 0.5921 0.8706
v -1.227876 0.393975 -1.138010 0.5137 0.5921 0.8706
v -1.287156 -0.509621 -1.174073 0.3216 0.3686 0.5451
v -1.072897 -1.330467 -0.932156 0.3686 0.4275 0.6276
v -0.658038 -1.857972 -0.503298 0.3686 0.4275 0.6276
v 0.215296 2.100134 -0.730988 0.4353 0.5019 0.7372
v 0.171762 1.018270 -1.105790 0.3686 0.4275 0.6276
v 0.172569 0.341529 -1.631339 0.5137 0.5921 0.8706
v 0.146245 -0.514348 -1.627826 0.3216 0.3686 0.5451
v 0.098610 -1.285298 -1.329010 0.3294 0.3804 0.5608
v 0.012258 -1.791904 -0.727484 0.3216 0.3686 0.5451
v -0.863078 1.700652 0.693826 0.3686 0.4275 0.6276
v -0.555490 1.867726 1.165998 0.3608 0.4157 0.6157
v -0.644689 2.148625 0.504864 0.3686 0.4275 0.6276
v -0.436477 2.145930 1.035233 0.3686 0.4275 0.6276
v -0.067679 2.380643 0.572601 0.3686 0.4275 0.6276
v -0.122031 2.238292 0.999823 0.3686 0.4275 0.6276
v 0.433451 2.081483 0.731532 0.3686 0.4275 0.6276
v 0.151065 2.075263 1.086434 0.3686 0.4275 0.6276
v 0.481342 1.538951 0.994692 0.3686 0.4275 0.6276
v 0.177163 1.779606 1.229845 0.3686 0.4275 0.6276
v 0.039929 1.161584 1.163917 0.3686 0.4275 0.6276
v -0.063389 1.573957 1.322065 0.3686 0.4275 0.6276
v -0.558394 1.233548 1.111776 0.3294 0.3804 0.5569
v -0.389450 1.613174 1.293651 0.3686 0.4275 0.6276
v -0.536425 2.240972 0.986466 0.3686 0.4275 0.6276
v -0.701270 1.855630 1.167591 0.3529 0.4078 0.6000
v -0.100883 2.368904 0.937420 0.3686 0.4275 0.6276
v 0.277383 2.143091 1.057385 0.3686 0.4275 0.6276
v 0.313532 1.733574 1.256025 0.3686 0.4275 0.6276
v -0.019658 1.448728 1.383760 0.3686 0.4275 0.6276
v -0.471287 1.503048 1.344403 0.3686 0.4275 0.6276
v -0.522352 2.095213 0.698136 0.5725 0.6039 0.7294
v -0.684630 1.715874 0.876440 0.3686 0.4275 0.6276
v -0.093595 2.221153 0.649854 0.3725 0.4314 0.6276
v 0.278780 1.998857 0.767950 0.5255 0.5647 0.7020
v 0.314365 1.595719 0.963496 0.3686 0.4275 0.6276
v -0.013635 1.315310 1.089242 0.3686 0.4275 0.6276
v -0.458229 1.368784 1.050498 0.3765 0.4314 0.6315
v 0.341455 0.067807 -1.484694 0.3686 0.4275 0.6276
v 0.675664 0.754027 -1.738680 0.3686 0.4275 0.6276
v 1.287392 0.073363 -1.135675 0.3686 0.4275 0.6276
v 1.191160 0.757055 -1.548480 0.3686 0.4275 0.6276
v 1.731396 0.755805 -0.533776 0.3882 0.4432 0.6354
v 1.448847 1.149812 -1.263418 0.3412 0.3921 0.5804
v 1.383843 1.660553 -0.254385 0.3961 0.4510 0.6393
v 1.254683 1.636545 -1.098153 0.3568 0.4118 0.6079
v 0.486809 2.080267 -0.454250 0.3686 0.4275 0.6276
v 0.754876 1.850734 -1.177131 0.4510 0.5216 0.7647
v -0.362950 1.594472 -0.767829 0.3686 0.4275 0.6276
v 0.325791 1.631089 -1.440882 0.4706 0.5451 0.8000
v -0.444681 0.841099 -1.027292 0.5137 0.5921 0.8706
v 0.290539 1.143009 -1.690795 0.3961 0.4550 0.6706
v 1.323007 0.557741 -1.596993 0.3686 0.4275 0.6276
v 0.608990 0.553547 -1.860441 0.3725 0.4314 0.6354
v 1.679932 1.101752 -1.202152 0.3686 0.4275 0.6236
v 1.410993 1.775929 -0.973242 0.3647 0.4196 0.6197
v 0.718707 2.072603 -1.082636 0.5098 0.5843 0.8627
v 0.124379 1.768372 -1.447959 0.4941 0.5725 0.8392
v 0.075551 1.092329 -1.794115 0.4902 0.5647 0.8313
v 1.126532 0.318113 -1.077800 0.3686 0.4275 0.6276
v 0.423637 0.313984 -1.337144 0.3725 0.4314 0.6276
v 1.477897 0.853650 -0.689109 0.3686 0.4275 0.6276
v 1.213147 1.517325 -0.463765 0.3686 0.4275 0.6276
v 0.531645 1.809377 -0.571455 0.3686 0.4275 0.6276
v -0.013449 1.485930 -0.840249 0.3843 0.4392 0.6354
v -0.064568 0.816995 -1.086938 0.3686 0.4275 0.6276
v 0.099533 -1.885450 -0.428845 0.3686 0.4275 0.6276
v 0.354387 -2.170291 -1.114498 0.3568 0.4118 0.6039
v 0.642422 -1.754402 -0.385615 0.3686 0.4275 0.6276
v 0.650239 -2.098875 -1.090940 0.3647 0.4235 0.6236
v 0.932722 -1.369916 -0.671392 0.3686 0.4275 0.6276
v 0.808440 -1.889347 -1.246676 0.3333 0.3804 0.5608
v 0.751831 -1.021520 -1.070979 0.3529 0.4078 0.6000
v 0.709862 -1.699486 -1.464434 0.3333 0.3843 0.5608
v 0.235963 -0.971562 -1.283479 0.3686 0.4275 0.6276
v 0.428736 -1.672261 -1.580238 0.3529 0.4039 0.5961
v -0.226422 -1.257662 -1.148875 0.3686 0.4275 0.6276
v 0.176756 -1.828173 -1.506884 0.3529 0.4078 0.6000
v -0.287139 -1.664380 -0.768527 0.3294 0.3804 0.5608
v 0.143667 -2.049818 -1.299610 0.3529 0.4118 0.6039
v 0.720635 -2.169508 -0.999245 0.3686 0.4275 0.6276
v 0.310849 -2.268427 -1.031876 0.3647 0.4235 0.6197
v 0.939761 -1.879289 -1.214957 0.3451 0.3961 0.5843
v 0.803220 -1.616311 -1.516575 0.3255 0.3765 0.5569
v 0.413830 -1.578601 -1.676975 0.3647 0.4235 0.6197
v 0.064810 -1.794556 -1.575373 0.3647 0.4235 0.6236
v 0.018979 -2.101558 -1.288277 0.3608 0.4157 0.6118
v 0.556708 -1.669387 -0.499357 0.3686 0.4275 0.6276
v 0.153304 -1.766765 -0.531479 0.3686 0.4275 0.6276
v 0.772420 -1.383688 -0.711709 0.3686 0.4275 0.6276
v 0.638006 -1.124806 -1.008629 0.3647 0.4196 0.6197
v 0.254682 -1.087684 -1.166530 0.3216 0.3686 0.5490
v -0.088902 -1.300275 -1.066511 0.3255 0.3725 0.5490
v -0.134019 -1.602495 -0.783886 0.3686 0.4275 0.6276
v -1.286144 0.270347 -0.809006 0.3686 0.4275 0.6236
v -1.759855 0.340771 -0.381256 0.3686 0.4275 0.6276
v -1.143152 0.979830 -0.495026 0.5098 0.5843 0.8588
v -1.708893 0.730561 -0.209303 0.3686 0.4275 0.6276
v -1.145488 1.184382 0.266911 0.3686 0.4275 0.6276
v -1.683203 0.838882 0.205073 0.3255 0.3804 0.5608
v -1.024048 0.698726 0.894644 0.3294 0.3804 0.5608
v -1.702131 0.584166 0.549838 0.3686 0.4275 0.6276
v -1.117423 -0.082544 0.923250 0.3686 0.4275 0.6276
v -1.751423 0.158221 0.565377 0.3686 0.4275 0.6276
v -1.348730 -0.571885 0.330980 0.3686 0.4275 0.6276
v -1.793962 -0.118210 0.239988 0.3568 0.4157 0.6157
v -1.355616 -0.422804 -0.442091 0.4941 0.5725 0.8392
v -1.797714 -0.036967 -0.181303 0.3608 0.4196 0.6079
v -1.695968 0.874508 -0.333282 0.3725 0.4314 0.6315
v -1.766556 0.334608 -0.571456 0.3686 0.4275 0.6276
v -1.660386 1.024544 0.240674 0.3568 0.4157 0.6118
v -1.686602 0.671736 0.718209 0.3686 0.4275 0.6276
v -1.754877 0.081756 0.739732 0.3686 0.4275 0.6276
v -1.813797 -0.301130 0.289035 0.3921 0.4510 0.6667
v -1.818995 -0.188600 -0.294499 0.3686 0.4275 0.6276
v -1.209882 0.809550 -0.341643 0.3686 0.4275 0.6276
v -1.279371 0.278060 -0.576108 0.3686 0.4275 0.6276
v -1.174854 0.957249 0.223371 0.3765 0.4314 0.6315
v -1.175626 0.595713 0.634512 0.3686 0.4275 0.6276
v -1.267874 0.029146 0.714656 0.3686 0.4275 0.6276
v -1.325876 -0.347775 0.270979 0.3765 0.4353 0.6315
v -1.330993 -0.236998 -0.303465 0.3686 0.4275 0.6276
vn 0.8483 0.5197 0.1009
vn 0.9581 -0.2179 -0.1861
vn 0.4964 -0.8633 -0.0911
vn -0.1889 -0.9303 0.3143
vn -0.6401 -0.3143 0.7011
vn -0.2179 -0.8344 -0.5063
vn -0.4488 0.4197 0.7890
vn 0.2141 0.8112 0.5441
vn 0.5113 -0.2445 0.8239
vn 0.6621 0.3292 -0.6732
vn -0.4711 0.8682 0.1561
vn -0.8326 -0.5524 -0.0411
vn 0.4723 -0.4166 -0.7768
vn 0.2328 0.9370 -0.2603
vn -0.9453 0.2053 0.2537
vn 0.2603 -0.6711 -0.6942
vn 0.2864 -0.0348 -0.9575
vn 0.1141 0.4106 -0.9047
vn 0.0282 -0.8277 -0.5605
vn 0.3232 -0.4524 -0.8312
vn 0.1372 0.4623 -0.8760
vn 0.2207 0.9342 -0.2802
vn 0.8578 0.2841 -0.4284
vn -0.0256 0.9155 -0.4015
vn 0.9232 -0.3791 -0.0631
vn 0.9390 -0.2524 -0.2337
vn 0.6375 0.5841 -0.5024
vn 0.3281 -0.9198 -0.2150
vn 0.7773 -0.6275 0.0456
vn 0.8523 -0.0479 0.5208
vn 0.7632 -0.3062 0.5689
vn 0.7419 0.4343 0.5109
vn 0.3324 -0.9409 -0.0643
vn 0.6342 -0.6876 0.3534
vn 0.7780 0.0497 0.6263
vn 0.3876 0.8462 0.3657
vn 0.5971 -0.0963 0.7964
vn 0.3577 0.0191 0.9336
vn 0.2432 0.3378 0.9093
vn 0.1765 -0.9788 0.1041
vn 0.5608 -0.4435 0.6991
vn 0.2765 -0.1236 0.9530
vn 0.0752 0.4929 0.8668
vn -0.2008 0.3385 0.9193
vn -0.3112 -0.9502 0.0146
vn -0.2075 -0.1677 0.9638
vn -0.3236 -0.0827 0.9426
vn -0.0178 0.4974 0.8673
vn -0.3468 -0.5155 0.7836
vn -0.2361 0.3136 0.9197
vn -0.3668 -0.9281 -0.0648
vn -0.9311 -0.1791 0.3176
vn -0.8706 0.1026 0.4812
vn -0.3885 0.7209 0.5739
vn -0.7166 -0.6792 0.1587
vn -0.8561 0.2969 0.4231
vn -0.7594 0.4140 0.5018
vn -0.8749 -0.2770 -0.3973
vn -0.8910 0.3140 -0.3280
vn -0.2793 0.9530 -0.1170
vn -0.6169 -0.6913 -0.3761
vn -0.9351 0.1327 -0.3286
vn -0.7716 0.5122 -0.3772
vn -0.3582 -0.8731 -0.3307
vn 0.0111 0.9555 -0.2948
vn -0.1814 -0.7224 -0.6672
vn -0.3162 0.0329 -0.9481
vn -0.1925 0.3925 -0.8994
vn -0.1095 -0.8159 -0.5677
vn -0.2878 -0.3349 -0.8972
vn -0.1971 0.4859 -0.8515
vn -0.8780 0.4610 0.1289
vn -0.3334 0.9409 -0.0600
vn 0.4941 0.8664 0.0728
vn 0.8889 0.2610 0.3764
vn 0.6059 -0.4005 0.6874
vn 0.8153 0.2767 -0.5087
vn -0.1418 -0.6202 0.7716
vn -0.8623 -0.2381 0.4469
vn -0.0262 0.4344 0.9003
vn -0.6282 0.4503 -0.6345
vn -0.5127 -0.8586 0.0004
vn 0.8794 -0.4497 -0.1564
vn 0.1443 0.6772 -0.7215
vn -0.9206 -0.2332 -0.3132
vn 0.2884 -0.9549 0.0702
vn 0.2585 -0.6761 -0.6899
vn 0.8919 -0.3583 -0.2759
vn 0.9373 0.3353 0.0951
vn 0.3827 0.9122 0.1465
vn -0.4310 0.8939 -0.1234
vn 0.6273 0.3886 0.6749
vn -0.8241 0.2831 -0.4906
vn -0.6363 -0.3696 -0.6771
vn 0.3128 0.4149 -0.8544
vn 0.4542 -0.8878 0.0745
vn -0.9354 -0.3312 -0.1235
vn -0.2418 0.7260 0.6438
vn 0.8785 -0.2423 0.4117
vn -0.3601 -0.9123 -0.1950
vn -0.8828 0.3979 0.2498
vn 0.1503 -0.8099 0.5670
vn 0.8533 -0.3749 0.3624
vn 0.9456 0.2434 -0.2158
vn 0.3578 0.5795 -0.7323
vn -0.4676 0.3803 -0.7980
vn 0.6461 0.7135 -0.2710
vn -0.9089 -0.2043 -0.3635
vn -0.6339 -0.7339 0.2440
vn 0.2204 -0.6836 -0.6958
vn 0.4787 -0.4078 0.7776
vn -0.9436 -0.2700 0.1917
vn -0.1432 0.7900 -0.5962
vn 0.9228 0.1805 0.3403
vn -0.3520 -0.6083 0.7114
vn -0.8507 0.3522 -0.3902
vn -0.3405 0.4282 -0.8371
vn -0.2626 0.9342 -0.2414
vn -0.2251 0.7668 0.6011
vn -0.2598 0.0658 0.9634
vn -0.3899 -0.6501 0.6522
vn 0.3888 0.4003 0.8298
vn -0.4856 -0.8591 -0.1614
vn -0.4502 -0.3821 -0.8071
vn -0.9928 0.1160 0.0312
vn 0.3758 0.6814 -0.6280
vn 0.1582 -0.7673 -0.6214
vn 0.2941 -0.4177 0.8597
vn 0.4251 0.8895 0.1677
vn 0.2103 -0.1235 -0.9698
vn 0.2124 -0.9486 0.2348
s 0
f 1//1 16//1 15//1 3//1
f 3//2 15//2 17//2 5//2
f 5//3 17//3 18//3 7//3
f 7//4 18//4 19//4 9//4
f 9//5 19//5 20//5 11//5
f 2//6 14//6 28//6 23//6
f 11//7 20//7 21//7 13//7
f 13//8 21//8 16//8 1//8
f 2//9 4//9 15//9 16//9
f 4//9 6//9 17//9 15//9
f 6//9 8//9 18//9 17//9
f 8//9 10//9 19//9 18//9
f 10//9 12//9 20//9 19//9
f 12//9 14//9 21//9 20//9
f 14//9 2//9 16//9 21//9
f 12//10 10//10 26//10 27//10
f 8//11 6//11 24//11 25//11
f 4//12 2//12 23//12 22//12
f 14//13 12//13 27//13 28//13
f 10//14 8//14 25//14 26//14
f 6//15 4//15 22//15 24//15
f 78//16 77//16 33//16 34//16
f 76//17 75//17 31//17 32//17
f 74//18 73//18 29//18 30//18
f 60//19 78//19 34//19
f 77//20 76//20 32//20 33//20
f 75//21 74//21 30//21 31//21
f 73//22 53//22 29//22
f 31//23 30//23 36//23 37//23
f 29//24 53//24 35//24
f 34//25 33//25 39//25 40//25
f 32//26 31//26 37//26 38//26
f 30//27 29//27 35//27 36//27
f 60//28 34//28 40//28
f 33//29 32//29 38//29 39//29
f 40//30 39//30 45//30 46//30
f 38//31 37//31 43//31 44//31
f 36//32 35//32 41//32 42//32
f 60//33 40//33 46//33
f 39//34 38//34 44//34 45//34
f 37//35 36//35 42//35 43//35
f 35//36 53//36 41//36
f 46//37 45//37 51//37 52//37
f 44//38 43//38 49//38 50//38
f 42//39 41//39 47//39 48//39
f 60//40 46//40 52//40
f 45//41 44//41 50//41 51//41
f 43//42 42//42 48//42 49//42
f 41//43 53//43 47//43
f 48//44 47//44 54//44 55//44
f 60//45 52//45 59//45
f 51//46 50//46 57//46 58//46
f 49//47 48//47 55//47 56//47
f 47//48 53//48 54//48
f 52//49 51//49 58//49 59//49
f 50//50 49//50 56//50 57//50
f 60//51 59//51 66//51
f 58//52 57//52 64//52 65//52
f 56//53 55//53 62//53 63//53
f 54//54 53//54 61//54
f 59//55 58//55 65//55 66//55
f 57//56 56//56 63//56 64//56
f 55//57 54//57 61//57 62//57
f 65//58 64//58 70//58 71//58
f 63//59 62//59 68//59 69//59
f 61//60 53//60 67//60
f 66//61 65//61 71//61 72//61
f 64//62 63//62 69//62 70//62
f 62//63 61//63 67//63 68//63
f 60//64 66//64 72//64
f 67//65 53//65 73//65
f 72//66 71//66 77//66 78//66
f 70//67 69//67 75//67 76//67
f 68//68 67//68 73//68 74//68
f 60//69 72//69 78//69
f 71//70 70//70 76//70 77//70
f 69//71 68//71 74//71 75//71
f 79//72 94//72 93//72 81//72
f 81//73 93//73 95//73 83//73
f 83//74 95//74 96//74 85//74
f 85//75 96//75 97//75 87//75
f 87//76 97//76 98//76 89//76
f 80//77 92//77 106//77 101//77
f 89//78 98//78 99//78 91//78
f 91//79 99//79 94//79 79//79
f 80//80 82//80 93//80 94//80
f 82//80 84//80 95//80 93//80
f 84//80 86//80 96//80 95//80
f 86//80 88//80 97//80 96//80
f 88//80 90//80 98//80 97//80
f 90//80 92//80 99//80 98//80
f 92//80 80//80 94//80 99//80
f 90//81 88//81 104//81 105//81
f 86//82 84//82 102//82 103//82
f 82//83 80//83 101//83 100//83
f 92//84 90//84 105//84 106//84
f 88//85 86//85 103//85 104//85
f 84//86 82//86 100//86 102//86
f 107//87 122//87 121//87 109//87
f 109//88 121//88 123//88 111//88
f 111//89 123//89 124//89 113//89
f 113//90 124//90 125//90 115//90
f 115//91 125//91 126//91 117//91
f 108//92 120//92 134//92 129//92
f 117//93 126//93 127//93 119//93
f 119//94 127//94 122//94 107//94
f 108//95 110//95 121//95 122//95
f 110//95 112//95 123//95 121//95
f 112//95 114//95 124//95 123//95
f 114//95 116//95 125//95 124//95
f 116//95 118//95 126//95 125//95
f 118//95 120//95 127//95 126//95
f 120//95 108//95 122//95 127//95
f 118//96 116//96 132//96 133//96
f 114//97 112//97 130//97 131//97
f 110//98 108//98 129//98 128//98
f 120//99 118//99 133//99 134//99
f 116//100 114//100 131//100 132//100
f 112//101 110//101 128//101 130//101
f 135//102 150//102 149//102 137//102
f 137//103 149//103 151//103 139//103
f 139//104 151//104 152//104 141//104
f 141//105 152//105 153//105 143//105
f 143//106 153//106 154//106 145//106
f 136//107 148//107 162//107 157//107
f 145//108 154//108 155//108 147//108
f 147//109 155//109 150//109 135//109
f 136//110 138//110 149//110 150//110
f 138//110 140//110 151//110 149//110
f 140//110 142//110 152//110 151//110
f 142//110 144//110 153//110 152//110
f 144//110 146//110 154//110 153//110
f 146//110 148//110 155//110 154//110
f 148//110 136//110 150//110 155//110
f 146//111 144//111 160//111 161//111
f 142//112 140//112 158//112 159//112
f 138//113 136//113 157//113 156//113
f 148//114 146//114 161//114 162//114
f 144//115 142//115 159//115 160//115
f 140//116 138//116 156//116 158//116
f 163//117 178//117 177//117 165//117
f 165//118 177//118 179//118 167//118
f 167//119 179//119 180//119 169//119
f 169//120 180//120 181//120 171//120
f 171//121 181//121 182//121 173//121
f 164//122 176//122 190//122 185//122
f 173//123 182//123 183//123 175//123
f 175//124 183//124 178//124 163//124
f 164//125 166//125 177//125 178//125
f 166//125 168//125 179//125 177//125
f 168//125 170//125 180//125 179//125
f 170//125 172//125 181//125 180//125
f 172//125 174//125 182//125 181//125
f 174//125 176//125 183//125 182//125
f 176//125 164//125 178//125 183//125
f 174//126 172//126 188//126 189//126
f 170//127 168//127 186//127 187//127
f 166//128 164//128 185//128 184//128
f 176//129 174//129 189//129 190//129
f 172//130 170//130 187//130 188//130
f 168//131 166//131 184//131 186//131
